<svg width="42" height="42" viewBox="0 0 42 42" fill="none" xmlns="http://www.w3.org/2000/svg">
<path d="M12 21C12 21.6667 12.5789 22.2043 13.2712 22.2043H20.2288V28.7957C20.2288 29.4516 20.8076 30 21.5 30C22.1924 30 22.7712 29.4516 22.7712 28.7957V22.2043H29.7288C30.4211 22.2043 31 21.6667 31 21C31 20.3441 30.4211 19.7957 29.7288 19.7957H22.7712V13.2043C22.7712 12.5484 22.1924 12 21.5 12C20.8076 12 20.2288 12.5484 20.2288 13.2043V19.7957H13.2712C12.5789 19.7957 12 20.3441 12 21Z" fill="#1A1B22"/>
</svg>
